# Blender v2.80 (sub 75) OBJ File: ''
# www.blender.org
mtllib left_panel_near3.mtl
o Cube.002_Cube.011
v 44.821564 -134.773117 -350.289001
v 44.821617 -134.773056 -353.288971
v -40.528347 -134.773041 -353.236572
v -40.528393 -134.773102 -350.236603
v -40.528404 -136.773117 -350.244995
v -40.528355 -136.773056 -353.244995
v 44.821606 -136.773056 -353.297394
v 44.821556 -136.773132 -350.297394
v -42.538895 -134.780930 -5.019101
v -37.538898 -134.780914 -5.022182
v -37.532974 -134.773026 -354.459869
v -42.532970 -134.773010 -354.456787
v -42.532978 -136.773010 -354.465179
v -37.532982 -136.773026 -354.468231
v -37.538906 -136.780945 -5.030587
v -42.538902 -136.780930 -5.027506
v -2.466197 -134.780930 -5.043705
v 2.533798 -134.780930 -5.046786
v 2.539717 -134.773026 -354.484467
v -2.460277 -134.773010 -354.481384
v -2.460285 -136.773026 -354.489777
v 2.539709 -136.773026 -354.492828
v 2.533789 -136.780945 -5.055191
v -2.466205 -136.780945 -5.052110
v 44.816658 -134.779678 -61.065922
v 44.816711 -134.779602 -64.065895
v -40.533253 -134.779587 -64.013496
v -40.533302 -134.779648 -61.013527
v -40.533310 -136.779678 -61.021935
v -40.533260 -136.779602 -64.021904
v 44.816704 -136.779617 -64.074295
v 44.816654 -136.779678 -61.074326
v 41.899307 -134.780930 -5.070955
v 46.899307 -134.780945 -5.074014
v 46.905224 -134.773026 -354.511688
v 41.905224 -134.773026 -354.508606
v 41.905212 -136.773041 -354.517029
v 46.905216 -136.773026 -354.520050
v 46.899296 -136.780945 -5.082419
v 41.899300 -136.780945 -5.079361
v -2.466197 -134.780930 -5.043705
v 2.533798 -134.780930 -5.046786
v 2.539717 -134.773026 -354.484467
v -2.460277 -134.773010 -354.481384
v -2.460285 -136.773026 -354.489777
v 2.539709 -136.773026 -354.492828
v 2.533789 -136.780945 -5.055191
v -2.466205 -136.780945 -5.052110
v 44.817131 -134.779037 -88.685669
v 44.817181 -134.778976 -91.685669
v -40.532776 -134.778976 -91.633278
v -40.532829 -134.779037 -88.633278
v -40.532845 -136.779037 -88.641685
v -40.532784 -136.778976 -91.641685
v 44.817173 -136.778976 -91.694077
v 44.817123 -136.779053 -88.694077
v 44.818096 -134.777740 -145.790649
v 44.818146 -134.777679 -148.790604
v -40.531818 -134.777679 -148.738220
v -40.531868 -134.777740 -145.738251
v -40.531876 -136.777756 -145.746658
v -40.531826 -136.777679 -148.746613
v 44.818138 -136.777695 -148.799011
v 44.818089 -136.777771 -145.799042
v 44.815727 -134.780914 -5.878235
v 44.815781 -134.780853 -8.878231
v -40.534184 -134.780838 -8.825838
v -40.534233 -134.780914 -5.825843
v -40.534241 -136.780914 -5.834248
v -40.534187 -136.780853 -8.834243
v 44.815769 -136.780853 -8.886637
v 44.815720 -136.780914 -5.886641
v 44.816196 -134.780304 -33.544426
v 44.816246 -134.780228 -36.544399
v -40.533718 -134.780212 -36.492004
v -40.533768 -134.780273 -33.492031
v -40.533775 -136.780304 -33.500439
v -40.533726 -136.780228 -36.500408
v 44.816238 -136.780243 -36.552803
v 44.816189 -136.780304 -33.552830
v 44.818604 -134.777100 -175.346130
v 44.818653 -134.777023 -178.346100
v -40.531311 -134.777008 -178.293716
v -40.531361 -134.777069 -175.293747
v -40.531368 -136.777084 -175.302139
v -40.531315 -136.777008 -178.302109
v 44.818645 -136.777039 -178.354507
v 44.818592 -136.777100 -175.354523
v 44.819096 -134.776428 -204.556046
v 44.819145 -134.776367 -207.556046
v -40.530815 -134.776352 -207.503632
v -40.530872 -134.776413 -204.503662
v -40.530880 -136.776413 -204.512039
v -40.530830 -136.776352 -207.512039
v 44.819138 -136.776367 -207.564438
v 44.819088 -136.776443 -204.564453
v 44.817600 -134.778427 -116.465889
v 44.817650 -134.778336 -119.465866
v -40.532310 -134.778336 -119.413475
v -40.532360 -134.778412 -116.413498
v -40.532375 -136.778412 -116.421906
v -40.532314 -136.778351 -119.421875
v 44.817642 -136.778366 -119.474274
v 44.817593 -136.778427 -116.474297
v 44.819592 -134.775757 -234.153503
v 44.819641 -134.775696 -237.153488
v -40.530319 -134.775681 -237.101105
v -40.530373 -134.775742 -234.101089
v -40.530376 -136.775757 -234.109512
v -40.530327 -136.775696 -237.109497
v 44.819637 -136.775696 -237.161865
v 44.819584 -136.775772 -234.161896
v 44.820076 -134.775101 -262.422638
v 44.820126 -134.775024 -265.422638
v -40.529839 -134.775024 -265.370239
v -40.529888 -134.775101 -262.370239
v -40.529900 -136.775101 -262.378662
v -40.529846 -136.775024 -265.378632
v 44.820114 -136.775055 -265.431030
v 44.820065 -136.775116 -262.431030
v 44.820564 -134.774445 -291.094086
v 44.820614 -134.774384 -294.094086
v -40.529350 -134.774384 -294.041687
v -40.529400 -134.774445 -291.041687
v -40.529411 -136.774445 -291.050079
v -40.529362 -136.774384 -294.050049
v 44.820602 -136.774399 -294.102448
v 44.820553 -136.774475 -291.102448
v 44.821049 -134.773804 -320.171173
v 44.821098 -134.773743 -323.171173
v -40.528858 -134.773712 -323.118774
v -40.528912 -134.773788 -320.118805
v -40.528919 -136.773788 -320.127197
v -40.528870 -136.773727 -323.127167
v 44.821091 -136.773743 -323.179565
v 44.821037 -136.773819 -320.179596
vt 0.375000 0.000000
vt 0.625000 0.000000
vt 0.625000 0.250000
vt 0.375000 0.250000
vt 0.375000 0.250000
vt 0.625000 0.250000
vt 0.625000 0.500000
vt 0.375000 0.500000
vt 0.625000 0.750000
vt 0.375000 0.750000
vt 0.625000 0.750000
vt 0.625000 1.000000
vt 0.375000 1.000000
vt 0.125000 0.500000
vt 0.375000 0.500000
vt 0.375000 0.750000
vt 0.125000 0.750000
vt 0.625000 0.500000
vt 0.875000 0.500000
vt 0.875000 0.750000
vt 0.375000 0.000000
vt 0.625000 0.000000
vt 0.625000 0.250000
vt 0.375000 0.250000
vt 0.375000 0.250000
vt 0.625000 0.250000
vt 0.625000 0.500000
vt 0.375000 0.500000
vt 0.625000 0.750000
vt 0.375000 0.750000
vt 0.625000 0.750000
vt 0.625000 1.000000
vt 0.375000 1.000000
vt 0.125000 0.500000
vt 0.375000 0.500000
vt 0.375000 0.750000
vt 0.125000 0.750000
vt 0.625000 0.500000
vt 0.875000 0.500000
vt 0.875000 0.750000
vt 0.375000 0.000000
vt 0.625000 0.000000
vt 0.625000 0.250000
vt 0.375000 0.250000
vt 0.375000 0.250000
vt 0.625000 0.250000
vt 0.625000 0.500000
vt 0.375000 0.500000
vt 0.625000 0.750000
vt 0.375000 0.750000
vt 0.625000 0.750000
vt 0.625000 1.000000
vt 0.375000 1.000000
vt 0.125000 0.500000
vt 0.375000 0.500000
vt 0.375000 0.750000
vt 0.125000 0.750000
vt 0.625000 0.500000
vt 0.875000 0.500000
vt 0.875000 0.750000
vt 0.375000 0.000000
vt 0.625000 0.000000
vt 0.625000 0.250000
vt 0.375000 0.250000
vt 0.375000 0.250000
vt 0.625000 0.250000
vt 0.625000 0.500000
vt 0.375000 0.500000
vt 0.625000 0.750000
vt 0.375000 0.750000
vt 0.625000 0.750000
vt 0.625000 1.000000
vt 0.375000 1.000000
vt 0.125000 0.500000
vt 0.375000 0.500000
vt 0.375000 0.750000
vt 0.125000 0.750000
vt 0.625000 0.500000
vt 0.875000 0.500000
vt 0.875000 0.750000
vt 0.375000 0.000000
vt 0.625000 0.000000
vt 0.625000 0.250000
vt 0.375000 0.250000
vt 0.375000 0.250000
vt 0.625000 0.250000
vt 0.625000 0.500000
vt 0.375000 0.500000
vt 0.625000 0.750000
vt 0.375000 0.750000
vt 0.625000 0.750000
vt 0.625000 1.000000
vt 0.375000 1.000000
vt 0.125000 0.500000
vt 0.375000 0.500000
vt 0.375000 0.750000
vt 0.125000 0.750000
vt 0.625000 0.500000
vt 0.875000 0.500000
vt 0.875000 0.750000
vt 0.375000 0.000000
vt 0.625000 0.000000
vt 0.625000 0.250000
vt 0.375000 0.250000
vt 0.375000 0.250000
vt 0.625000 0.250000
vt 0.625000 0.500000
vt 0.375000 0.500000
vt 0.625000 0.750000
vt 0.375000 0.750000
vt 0.625000 0.750000
vt 0.625000 1.000000
vt 0.375000 1.000000
vt 0.125000 0.500000
vt 0.375000 0.500000
vt 0.375000 0.750000
vt 0.125000 0.750000
vt 0.625000 0.500000
vt 0.875000 0.500000
vt 0.875000 0.750000
vt 0.375000 0.000000
vt 0.625000 0.000000
vt 0.625000 0.250000
vt 0.375000 0.250000
vt 0.375000 0.250000
vt 0.625000 0.250000
vt 0.625000 0.500000
vt 0.375000 0.500000
vt 0.625000 0.750000
vt 0.375000 0.750000
vt 0.625000 0.750000
vt 0.625000 1.000000
vt 0.375000 1.000000
vt 0.125000 0.500000
vt 0.375000 0.500000
vt 0.375000 0.750000
vt 0.125000 0.750000
vt 0.625000 0.500000
vt 0.875000 0.500000
vt 0.875000 0.750000
vt 0.375000 0.000000
vt 0.625000 0.000000
vt 0.625000 0.250000
vt 0.375000 0.250000
vt 0.375000 0.250000
vt 0.625000 0.250000
vt 0.625000 0.500000
vt 0.375000 0.500000
vt 0.625000 0.750000
vt 0.375000 0.750000
vt 0.625000 0.750000
vt 0.625000 1.000000
vt 0.375000 1.000000
vt 0.125000 0.500000
vt 0.375000 0.500000
vt 0.375000 0.750000
vt 0.125000 0.750000
vt 0.625000 0.500000
vt 0.875000 0.500000
vt 0.875000 0.750000
vt 0.375000 0.000000
vt 0.625000 0.000000
vt 0.625000 0.250000
vt 0.375000 0.250000
vt 0.375000 0.250000
vt 0.625000 0.250000
vt 0.625000 0.500000
vt 0.375000 0.500000
vt 0.625000 0.750000
vt 0.375000 0.750000
vt 0.625000 0.750000
vt 0.625000 1.000000
vt 0.375000 1.000000
vt 0.125000 0.500000
vt 0.375000 0.500000
vt 0.375000 0.750000
vt 0.125000 0.750000
vt 0.625000 0.500000
vt 0.875000 0.500000
vt 0.875000 0.750000
vt 0.375000 0.000000
vt 0.625000 0.000000
vt 0.625000 0.250000
vt 0.375000 0.250000
vt 0.375000 0.250000
vt 0.625000 0.250000
vt 0.625000 0.500000
vt 0.375000 0.500000
vt 0.625000 0.750000
vt 0.375000 0.750000
vt 0.625000 0.750000
vt 0.625000 1.000000
vt 0.375000 1.000000
vt 0.125000 0.500000
vt 0.375000 0.500000
vt 0.375000 0.750000
vt 0.125000 0.750000
vt 0.625000 0.500000
vt 0.875000 0.500000
vt 0.875000 0.750000
vt 0.375000 0.000000
vt 0.625000 0.000000
vt 0.625000 0.250000
vt 0.375000 0.250000
vt 0.375000 0.250000
vt 0.625000 0.250000
vt 0.625000 0.500000
vt 0.375000 0.500000
vt 0.625000 0.750000
vt 0.375000 0.750000
vt 0.625000 0.750000
vt 0.625000 1.000000
vt 0.375000 1.000000
vt 0.125000 0.500000
vt 0.375000 0.500000
vt 0.375000 0.750000
vt 0.125000 0.750000
vt 0.625000 0.500000
vt 0.875000 0.500000
vt 0.875000 0.750000
vt 0.375000 0.000000
vt 0.625000 0.000000
vt 0.625000 0.250000
vt 0.375000 0.250000
vt 0.375000 0.250000
vt 0.625000 0.250000
vt 0.625000 0.500000
vt 0.375000 0.500000
vt 0.625000 0.750000
vt 0.375000 0.750000
vt 0.625000 0.750000
vt 0.625000 1.000000
vt 0.375000 1.000000
vt 0.125000 0.500000
vt 0.375000 0.500000
vt 0.375000 0.750000
vt 0.125000 0.750000
vt 0.625000 0.500000
vt 0.875000 0.500000
vt 0.875000 0.750000
vt 0.375000 0.000000
vt 0.625000 0.000000
vt 0.625000 0.250000
vt 0.375000 0.250000
vt 0.375000 0.250000
vt 0.625000 0.250000
vt 0.625000 0.500000
vt 0.375000 0.500000
vt 0.625000 0.750000
vt 0.375000 0.750000
vt 0.625000 0.750000
vt 0.625000 1.000000
vt 0.375000 1.000000
vt 0.125000 0.500000
vt 0.375000 0.500000
vt 0.375000 0.750000
vt 0.125000 0.750000
vt 0.625000 0.500000
vt 0.875000 0.500000
vt 0.875000 0.750000
vt 0.375000 0.000000
vt 0.625000 0.000000
vt 0.625000 0.250000
vt 0.375000 0.250000
vt 0.375000 0.250000
vt 0.625000 0.250000
vt 0.625000 0.500000
vt 0.375000 0.500000
vt 0.625000 0.750000
vt 0.375000 0.750000
vt 0.625000 0.750000
vt 0.625000 1.000000
vt 0.375000 1.000000
vt 0.125000 0.500000
vt 0.375000 0.500000
vt 0.375000 0.750000
vt 0.125000 0.750000
vt 0.625000 0.500000
vt 0.875000 0.500000
vt 0.875000 0.750000
vt 0.375000 0.000000
vt 0.625000 0.000000
vt 0.625000 0.250000
vt 0.375000 0.250000
vt 0.375000 0.250000
vt 0.625000 0.250000
vt 0.625000 0.500000
vt 0.375000 0.500000
vt 0.625000 0.750000
vt 0.375000 0.750000
vt 0.625000 0.750000
vt 0.625000 1.000000
vt 0.375000 1.000000
vt 0.125000 0.500000
vt 0.375000 0.500000
vt 0.375000 0.750000
vt 0.125000 0.750000
vt 0.625000 0.500000
vt 0.875000 0.500000
vt 0.875000 0.750000
vt 0.375000 0.000000
vt 0.625000 0.000000
vt 0.625000 0.250000
vt 0.375000 0.250000
vt 0.375000 0.250000
vt 0.625000 0.250000
vt 0.625000 0.500000
vt 0.375000 0.500000
vt 0.625000 0.750000
vt 0.375000 0.750000
vt 0.625000 0.750000
vt 0.625000 1.000000
vt 0.375000 1.000000
vt 0.125000 0.500000
vt 0.375000 0.500000
vt 0.375000 0.750000
vt 0.125000 0.750000
vt 0.625000 0.500000
vt 0.875000 0.500000
vt 0.875000 0.750000
vt 0.375000 0.000000
vt 0.625000 0.000000
vt 0.625000 0.250000
vt 0.375000 0.250000
vt 0.375000 0.250000
vt 0.625000 0.250000
vt 0.625000 0.500000
vt 0.375000 0.500000
vt 0.625000 0.750000
vt 0.375000 0.750000
vt 0.625000 0.750000
vt 0.625000 1.000000
vt 0.375000 1.000000
vt 0.125000 0.500000
vt 0.375000 0.500000
vt 0.375000 0.750000
vt 0.125000 0.750000
vt 0.625000 0.500000
vt 0.875000 0.500000
vt 0.875000 0.750000
vn 0.0000 1.0000 0.0000
vn -1.0000 0.0000 -0.0000
vn -0.0006 0.0042 -1.0000
vn -0.0000 -1.0000 -0.0000
vn 0.0006 -0.0042 1.0000
vn 1.0000 -0.0000 0.0000
usemtl Default_OBJ.022
s 1
f 1/1/1 2/2/1 3/3/1 4/4/1
f 5/5/2 4/6/2 3/7/2 6/8/2
f 6/8/3 3/7/3 2/9/3 7/10/3
f 7/10/4 8/11/4 5/12/4 6/13/4
f 8/14/5 1/15/5 4/16/5 5/17/5
f 7/18/6 2/19/6 1/20/6 8/11/6
f 9/21/1 10/22/1 11/23/1 12/24/1
f 13/25/3 12/26/3 11/27/3 14/28/3
f 14/28/6 11/27/6 10/29/6 15/30/6
f 15/30/4 16/31/4 13/32/4 14/33/4
f 16/34/2 9/35/2 12/36/2 13/37/2
f 15/38/5 10/39/5 9/40/5 16/31/5
f 17/41/1 18/42/1 19/43/1 20/44/1
f 21/45/3 20/46/3 19/47/3 22/48/3
f 22/48/6 19/47/6 18/49/6 23/50/6
f 23/50/4 24/51/4 21/52/4 22/53/4
f 24/54/2 17/55/2 20/56/2 21/57/2
f 23/58/5 18/59/5 17/60/5 24/51/5
f 25/61/1 26/62/1 27/63/1 28/64/1
f 29/65/2 28/66/2 27/67/2 30/68/2
f 30/68/3 27/67/3 26/69/3 31/70/3
f 31/70/4 32/71/4 29/72/4 30/73/4
f 32/74/5 25/75/5 28/76/5 29/77/5
f 31/78/6 26/79/6 25/80/6 32/71/6
f 33/81/1 34/82/1 35/83/1 36/84/1
f 37/85/3 36/86/3 35/87/3 38/88/3
f 38/88/6 35/87/6 34/89/6 39/90/6
f 39/90/4 40/91/4 37/92/4 38/93/4
f 40/94/2 33/95/2 36/96/2 37/97/2
f 39/98/5 34/99/5 33/100/5 40/91/5
f 41/101/1 42/102/1 43/103/1 44/104/1
f 45/105/3 44/106/3 43/107/3 46/108/3
f 46/108/6 43/107/6 42/109/6 47/110/6
f 47/110/4 48/111/4 45/112/4 46/113/4
f 48/114/2 41/115/2 44/116/2 45/117/2
f 47/118/5 42/119/5 41/120/5 48/111/5
f 49/121/1 50/122/1 51/123/1 52/124/1
f 53/125/2 52/126/2 51/127/2 54/128/2
f 54/128/3 51/127/3 50/129/3 55/130/3
f 55/130/4 56/131/4 53/132/4 54/133/4
f 56/134/5 49/135/5 52/136/5 53/137/5
f 55/138/6 50/139/6 49/140/6 56/131/6
f 57/141/1 58/142/1 59/143/1 60/144/1
f 61/145/2 60/146/2 59/147/2 62/148/2
f 62/148/3 59/147/3 58/149/3 63/150/3
f 63/150/4 64/151/4 61/152/4 62/153/4
f 64/154/5 57/155/5 60/156/5 61/157/5
f 63/158/6 58/159/6 57/160/6 64/151/6
f 65/161/1 66/162/1 67/163/1 68/164/1
f 69/165/2 68/166/2 67/167/2 70/168/2
f 70/168/3 67/167/3 66/169/3 71/170/3
f 71/170/4 72/171/4 69/172/4 70/173/4
f 72/174/5 65/175/5 68/176/5 69/177/5
f 71/178/6 66/179/6 65/180/6 72/171/6
f 73/181/1 74/182/1 75/183/1 76/184/1
f 77/185/2 76/186/2 75/187/2 78/188/2
f 78/188/3 75/187/3 74/189/3 79/190/3
f 79/190/4 80/191/4 77/192/4 78/193/4
f 80/194/5 73/195/5 76/196/5 77/197/5
f 79/198/6 74/199/6 73/200/6 80/191/6
f 81/201/1 82/202/1 83/203/1 84/204/1
f 85/205/2 84/206/2 83/207/2 86/208/2
f 86/208/3 83/207/3 82/209/3 87/210/3
f 87/210/4 88/211/4 85/212/4 86/213/4
f 88/214/5 81/215/5 84/216/5 85/217/5
f 87/218/6 82/219/6 81/220/6 88/211/6
f 89/221/1 90/222/1 91/223/1 92/224/1
f 93/225/2 92/226/2 91/227/2 94/228/2
f 94/228/3 91/227/3 90/229/3 95/230/3
f 95/230/4 96/231/4 93/232/4 94/233/4
f 96/234/5 89/235/5 92/236/5 93/237/5
f 95/238/6 90/239/6 89/240/6 96/231/6
f 97/241/1 98/242/1 99/243/1 100/244/1
f 101/245/2 100/246/2 99/247/2 102/248/2
f 102/248/3 99/247/3 98/249/3 103/250/3
f 103/250/4 104/251/4 101/252/4 102/253/4
f 104/254/5 97/255/5 100/256/5 101/257/5
f 103/258/6 98/259/6 97/260/6 104/251/6
f 105/261/1 106/262/1 107/263/1 108/264/1
f 109/265/2 108/266/2 107/267/2 110/268/2
f 110/268/3 107/267/3 106/269/3 111/270/3
f 111/270/4 112/271/4 109/272/4 110/273/4
f 112/274/5 105/275/5 108/276/5 109/277/5
f 111/278/6 106/279/6 105/280/6 112/271/6
f 113/281/1 114/282/1 115/283/1 116/284/1
f 117/285/2 116/286/2 115/287/2 118/288/2
f 118/288/3 115/287/3 114/289/3 119/290/3
f 119/290/4 120/291/4 117/292/4 118/293/4
f 120/294/5 113/295/5 116/296/5 117/297/5
f 119/298/6 114/299/6 113/300/6 120/291/6
f 121/301/1 122/302/1 123/303/1 124/304/1
f 125/305/2 124/306/2 123/307/2 126/308/2
f 126/308/3 123/307/3 122/309/3 127/310/3
f 127/310/4 128/311/4 125/312/4 126/313/4
f 128/314/5 121/315/5 124/316/5 125/317/5
f 127/318/6 122/319/6 121/320/6 128/311/6
f 129/321/1 130/322/1 131/323/1 132/324/1
f 133/325/2 132/326/2 131/327/2 134/328/2
f 134/328/3 131/327/3 130/329/3 135/330/3
f 135/330/4 136/331/4 133/332/4 134/333/4
f 136/334/5 129/335/5 132/336/5 133/337/5
f 135/338/6 130/339/6 129/340/6 136/331/6
