# Blender v2.80 (sub 75) OBJ File: 'untitled12.blend'
# www.blender.org
mtllib 3234.mtl
o Cube.000
v 18.064341 -124.054436 -233.793610
v 18.065525 -124.044418 -235.793579
v -16.074465 -124.044312 -235.813766
v -16.075647 -124.054321 -233.813797
v -16.075647 -126.054298 -233.823807
v -16.074465 -126.044281 -235.823792
v 18.065523 -126.044395 -235.803604
v 18.064341 -126.054413 -233.803619
v -17.013605 -125.206894 -3.671478
v -15.013605 -125.206902 -3.670303
v -14.875841 -124.040237 -236.627350
v -16.875841 -124.040230 -236.628525
v -16.875841 -126.040199 -236.638535
v -14.875841 -126.040207 -236.637360
v -15.013605 -127.206879 -3.680328
v -17.013605 -127.206871 -3.681503
v -0.984524 -125.206947 -3.662003
v 1.015474 -125.206955 -3.660828
v 1.153236 -124.040283 -236.617859
v -0.846762 -124.040276 -236.619049
v -0.846762 -126.040253 -236.629059
v 1.153236 -126.040260 -236.627884
v 1.015474 -127.206932 -3.670853
v -0.984524 -127.206924 -3.672028
v 17.950317 -125.020065 -40.979385
v 17.951500 -125.010048 -42.979355
v -16.188490 -125.009933 -42.999542
v -16.189672 -125.019951 -40.999573
v -16.189672 -127.019928 -41.009598
v -16.188490 -127.009911 -43.009567
v 17.951500 -127.010025 -42.989380
v 17.950317 -127.020042 -40.989410
v 16.761681 -125.207008 -3.651520
v 18.761681 -125.207016 -3.650330
v 18.899441 -124.040344 -236.607376
v 16.899443 -124.040337 -236.608551
v 16.899441 -126.040314 -236.618576
v 18.899441 -126.040321 -236.617386
v 18.761679 -127.206985 -3.660355
v 16.761681 -127.206978 -3.661545
v -0.984524 -125.206947 -3.662003
v 1.015474 -125.206955 -3.660828
v 1.153236 -124.040283 -236.617859
v -0.846762 -124.040276 -236.619049
v -0.846762 -126.040253 -236.629059
v 1.153236 -126.040260 -236.627884
v 1.015474 -127.206932 -3.670853
v -0.984524 -127.206924 -3.672028
v 17.961206 -124.927849 -59.392441
v 17.962389 -124.917831 -61.392426
v -16.177599 -124.917725 -61.412613
v -16.178782 -124.927742 -59.412628
v -16.178785 -126.927711 -59.422653
v -16.177599 -126.917694 -61.422638
v 17.962389 -126.917809 -61.402451
v 17.961206 -126.927826 -59.402466
v 17.983719 -124.737190 -97.462189
v 17.984901 -124.727180 -99.462158
v -16.155088 -124.727066 -99.482346
v -16.156271 -124.737083 -97.482376
v -16.156271 -126.737061 -97.492401
v -16.155088 -126.727043 -99.492371
v 17.984901 -126.727150 -99.472183
v 17.983719 -126.737167 -97.472214
v 17.928560 -125.204323 -4.187820
v 17.929745 -125.194305 -6.187805
v -16.210245 -125.194191 -6.207993
v -16.211428 -125.204208 -4.208008
v -16.211428 -127.204185 -4.218033
v -16.210245 -127.194168 -6.218018
v 17.929743 -127.194283 -6.197830
v 17.928560 -127.204292 -4.197845
v 17.939468 -125.111954 -22.631836
v 17.940651 -125.101936 -24.631805
v -16.199339 -125.101822 -24.651993
v -16.200521 -125.111839 -22.652023
v -16.200521 -127.111816 -22.662048
v -16.199339 -127.101799 -24.662018
v 17.940651 -127.101913 -24.641830
v 17.939468 -127.111923 -22.641861
v 17.995373 -124.638519 -117.165733
v 17.996555 -124.628502 -119.165703
v -16.143435 -124.628387 -119.185890
v -16.144617 -124.638405 -117.185921
v -16.144617 -126.638382 -117.195938
v -16.143435 -126.628365 -119.195908
v 17.996555 -126.628479 -119.175720
v 17.995371 -126.638489 -117.175751
v 18.006887 -124.540993 -136.638901
v 18.008070 -124.530975 -138.638885
v -16.131918 -124.530869 -138.659058
v -16.133104 -124.540878 -136.659088
v -16.133104 -126.540855 -136.669098
v -16.131922 -126.530838 -138.669083
v 18.008070 -126.530952 -138.648895
v 18.006887 -126.540970 -136.648926
v 17.972158 -124.835098 -77.912476
v 17.973341 -124.825081 -79.912445
v -16.166647 -124.824974 -79.932632
v -16.167830 -124.834991 -77.932663
v -16.167833 -126.834961 -77.942688
v -16.166647 -126.824951 -79.942657
v 17.973341 -126.825058 -79.922470
v 17.972158 -126.835075 -77.922501
v 18.018555 -124.442177 -156.370422
v 18.019737 -124.432159 -158.370392
v -16.120253 -124.432053 -158.390579
v -16.121435 -124.442062 -156.390594
v -16.121435 -126.442039 -156.400620
v -16.120253 -126.432022 -158.400604
v 18.019737 -126.432137 -158.380402
v 18.018555 -126.442154 -156.380432
v 18.029701 -124.347794 -175.216400
v 18.030884 -124.337776 -177.216370
v -16.109106 -124.337669 -177.236572
v -16.110289 -124.347687 -175.236588
v -16.110289 -126.347656 -175.246613
v -16.109106 -126.337639 -177.246582
v 18.030884 -126.337753 -177.226395
v 18.029701 -126.347771 -175.226410
v 18.041004 -124.252068 -194.330566
v 18.042187 -124.242050 -196.330551
v -16.097803 -124.241943 -196.350739
v -16.098986 -124.251961 -194.350754
v -16.098986 -126.251930 -194.360779
v -16.097803 -126.241913 -196.360748
v 18.042187 -126.242027 -196.340561
v 18.041004 -126.252045 -194.340576
v 18.052465 -124.154991 -213.715179
v 18.053648 -124.144974 -215.715164
v -16.086340 -124.144859 -215.735352
v -16.087523 -124.154877 -213.735382
v -16.087523 -126.154854 -213.745392
v -16.086340 -126.144836 -215.745361
v 18.053648 -126.144951 -215.725174
v 18.052465 -126.154968 -213.725204
vt 0.375000 0.000000
vt 0.625000 0.000000
vt 0.625000 0.250000
vt 0.375000 0.250000
vt 0.375000 0.250000
vt 0.625000 0.250000
vt 0.625000 0.500000
vt 0.375000 0.500000
vt 0.625000 0.750000
vt 0.375000 0.750000
vt 0.625000 0.750000
vt 0.625000 1.000000
vt 0.375000 1.000000
vt 0.125000 0.500000
vt 0.375000 0.500000
vt 0.375000 0.750000
vt 0.125000 0.750000
vt 0.625000 0.500000
vt 0.875000 0.500000
vt 0.875000 0.750000
vt 0.375000 0.000000
vt 0.625000 0.000000
vt 0.625000 0.250000
vt 0.375000 0.250000
vt 0.375000 0.250000
vt 0.625000 0.250000
vt 0.625000 0.500000
vt 0.375000 0.500000
vt 0.625000 0.750000
vt 0.375000 0.750000
vt 0.625000 0.750000
vt 0.625000 1.000000
vt 0.375000 1.000000
vt 0.125000 0.500000
vt 0.375000 0.500000
vt 0.375000 0.750000
vt 0.125000 0.750000
vt 0.625000 0.500000
vt 0.875000 0.500000
vt 0.875000 0.750000
vt 0.375000 0.000000
vt 0.625000 0.000000
vt 0.625000 0.250000
vt 0.375000 0.250000
vt 0.375000 0.250000
vt 0.625000 0.250000
vt 0.625000 0.500000
vt 0.375000 0.500000
vt 0.625000 0.750000
vt 0.375000 0.750000
vt 0.625000 0.750000
vt 0.625000 1.000000
vt 0.375000 1.000000
vt 0.125000 0.500000
vt 0.375000 0.500000
vt 0.375000 0.750000
vt 0.125000 0.750000
vt 0.625000 0.500000
vt 0.875000 0.500000
vt 0.875000 0.750000
vt 0.375000 0.000000
vt 0.625000 0.000000
vt 0.625000 0.250000
vt 0.375000 0.250000
vt 0.375000 0.250000
vt 0.625000 0.250000
vt 0.625000 0.500000
vt 0.375000 0.500000
vt 0.625000 0.750000
vt 0.375000 0.750000
vt 0.625000 0.750000
vt 0.625000 1.000000
vt 0.375000 1.000000
vt 0.125000 0.500000
vt 0.375000 0.500000
vt 0.375000 0.750000
vt 0.125000 0.750000
vt 0.625000 0.500000
vt 0.875000 0.500000
vt 0.875000 0.750000
vt 0.375000 0.000000
vt 0.625000 0.000000
vt 0.625000 0.250000
vt 0.375000 0.250000
vt 0.375000 0.250000
vt 0.625000 0.250000
vt 0.625000 0.500000
vt 0.375000 0.500000
vt 0.625000 0.750000
vt 0.375000 0.750000
vt 0.625000 0.750000
vt 0.625000 1.000000
vt 0.375000 1.000000
vt 0.125000 0.500000
vt 0.375000 0.500000
vt 0.375000 0.750000
vt 0.125000 0.750000
vt 0.625000 0.500000
vt 0.875000 0.500000
vt 0.875000 0.750000
vt 0.375000 0.000000
vt 0.625000 0.000000
vt 0.625000 0.250000
vt 0.375000 0.250000
vt 0.375000 0.250000
vt 0.625000 0.250000
vt 0.625000 0.500000
vt 0.375000 0.500000
vt 0.625000 0.750000
vt 0.375000 0.750000
vt 0.625000 0.750000
vt 0.625000 1.000000
vt 0.375000 1.000000
vt 0.125000 0.500000
vt 0.375000 0.500000
vt 0.375000 0.750000
vt 0.125000 0.750000
vt 0.625000 0.500000
vt 0.875000 0.500000
vt 0.875000 0.750000
vt 0.375000 0.000000
vt 0.625000 0.000000
vt 0.625000 0.250000
vt 0.375000 0.250000
vt 0.375000 0.250000
vt 0.625000 0.250000
vt 0.625000 0.500000
vt 0.375000 0.500000
vt 0.625000 0.750000
vt 0.375000 0.750000
vt 0.625000 0.750000
vt 0.625000 1.000000
vt 0.375000 1.000000
vt 0.125000 0.500000
vt 0.375000 0.500000
vt 0.375000 0.750000
vt 0.125000 0.750000
vt 0.625000 0.500000
vt 0.875000 0.500000
vt 0.875000 0.750000
vt 0.375000 0.000000
vt 0.625000 0.000000
vt 0.625000 0.250000
vt 0.375000 0.250000
vt 0.375000 0.250000
vt 0.625000 0.250000
vt 0.625000 0.500000
vt 0.375000 0.500000
vt 0.625000 0.750000
vt 0.375000 0.750000
vt 0.625000 0.750000
vt 0.625000 1.000000
vt 0.375000 1.000000
vt 0.125000 0.500000
vt 0.375000 0.500000
vt 0.375000 0.750000
vt 0.125000 0.750000
vt 0.625000 0.500000
vt 0.875000 0.500000
vt 0.875000 0.750000
vt 0.375000 0.000000
vt 0.625000 0.000000
vt 0.625000 0.250000
vt 0.375000 0.250000
vt 0.375000 0.250000
vt 0.625000 0.250000
vt 0.625000 0.500000
vt 0.375000 0.500000
vt 0.625000 0.750000
vt 0.375000 0.750000
vt 0.625000 0.750000
vt 0.625000 1.000000
vt 0.375000 1.000000
vt 0.125000 0.500000
vt 0.375000 0.500000
vt 0.375000 0.750000
vt 0.125000 0.750000
vt 0.625000 0.500000
vt 0.875000 0.500000
vt 0.875000 0.750000
vt 0.375000 0.000000
vt 0.625000 0.000000
vt 0.625000 0.250000
vt 0.375000 0.250000
vt 0.375000 0.250000
vt 0.625000 0.250000
vt 0.625000 0.500000
vt 0.375000 0.500000
vt 0.625000 0.750000
vt 0.375000 0.750000
vt 0.625000 0.750000
vt 0.625000 1.000000
vt 0.375000 1.000000
vt 0.125000 0.500000
vt 0.375000 0.500000
vt 0.375000 0.750000
vt 0.125000 0.750000
vt 0.625000 0.500000
vt 0.875000 0.500000
vt 0.875000 0.750000
vt 0.375000 0.000000
vt 0.625000 0.000000
vt 0.625000 0.250000
vt 0.375000 0.250000
vt 0.375000 0.250000
vt 0.625000 0.250000
vt 0.625000 0.500000
vt 0.375000 0.500000
vt 0.625000 0.750000
vt 0.375000 0.750000
vt 0.625000 0.750000
vt 0.625000 1.000000
vt 0.375000 1.000000
vt 0.125000 0.500000
vt 0.375000 0.500000
vt 0.375000 0.750000
vt 0.125000 0.750000
vt 0.625000 0.500000
vt 0.875000 0.500000
vt 0.875000 0.750000
vt 0.375000 0.000000
vt 0.625000 0.000000
vt 0.625000 0.250000
vt 0.375000 0.250000
vt 0.375000 0.250000
vt 0.625000 0.250000
vt 0.625000 0.500000
vt 0.375000 0.500000
vt 0.625000 0.750000
vt 0.375000 0.750000
vt 0.625000 0.750000
vt 0.625000 1.000000
vt 0.375000 1.000000
vt 0.125000 0.500000
vt 0.375000 0.500000
vt 0.375000 0.750000
vt 0.125000 0.750000
vt 0.625000 0.500000
vt 0.875000 0.500000
vt 0.875000 0.750000
vt 0.375000 0.000000
vt 0.625000 0.000000
vt 0.625000 0.250000
vt 0.375000 0.250000
vt 0.375000 0.250000
vt 0.625000 0.250000
vt 0.625000 0.500000
vt 0.375000 0.500000
vt 0.625000 0.750000
vt 0.375000 0.750000
vt 0.625000 0.750000
vt 0.625000 1.000000
vt 0.375000 1.000000
vt 0.125000 0.500000
vt 0.375000 0.500000
vt 0.375000 0.750000
vt 0.125000 0.750000
vt 0.625000 0.500000
vt 0.875000 0.500000
vt 0.875000 0.750000
vt 0.375000 0.000000
vt 0.625000 0.000000
vt 0.625000 0.250000
vt 0.375000 0.250000
vt 0.375000 0.250000
vt 0.625000 0.250000
vt 0.625000 0.500000
vt 0.375000 0.500000
vt 0.625000 0.750000
vt 0.375000 0.750000
vt 0.625000 0.750000
vt 0.625000 1.000000
vt 0.375000 1.000000
vt 0.125000 0.500000
vt 0.375000 0.500000
vt 0.375000 0.750000
vt 0.125000 0.750000
vt 0.625000 0.500000
vt 0.875000 0.500000
vt 0.875000 0.750000
vt 0.375000 0.000000
vt 0.625000 0.000000
vt 0.625000 0.250000
vt 0.375000 0.250000
vt 0.375000 0.250000
vt 0.625000 0.250000
vt 0.625000 0.500000
vt 0.375000 0.500000
vt 0.625000 0.750000
vt 0.375000 0.750000
vt 0.625000 0.750000
vt 0.625000 1.000000
vt 0.375000 1.000000
vt 0.125000 0.500000
vt 0.375000 0.500000
vt 0.375000 0.750000
vt 0.125000 0.750000
vt 0.625000 0.500000
vt 0.875000 0.500000
vt 0.875000 0.750000
vt 0.375000 0.000000
vt 0.625000 0.000000
vt 0.625000 0.250000
vt 0.375000 0.250000
vt 0.375000 0.250000
vt 0.625000 0.250000
vt 0.625000 0.500000
vt 0.375000 0.500000
vt 0.625000 0.750000
vt 0.375000 0.750000
vt 0.625000 0.750000
vt 0.625000 1.000000
vt 0.375000 1.000000
vt 0.125000 0.500000
vt 0.375000 0.500000
vt 0.375000 0.750000
vt 0.125000 0.750000
vt 0.625000 0.500000
vt 0.875000 0.500000
vt 0.875000 0.750000
vt 0.375000 0.000000
vt 0.625000 0.000000
vt 0.625000 0.250000
vt 0.375000 0.250000
vt 0.375000 0.250000
vt 0.625000 0.250000
vt 0.625000 0.500000
vt 0.375000 0.500000
vt 0.625000 0.750000
vt 0.375000 0.750000
vt 0.625000 0.750000
vt 0.625000 1.000000
vt 0.375000 1.000000
vt 0.125000 0.500000
vt 0.375000 0.500000
vt 0.375000 0.750000
vt 0.125000 0.750000
vt 0.625000 0.500000
vt 0.875000 0.500000
vt 0.875000 0.750000
vn 0.0000 1.0000 0.0050
vn -1.0000 0.0000 -0.0006
vn 0.0006 0.0050 -1.0000
vn -0.0000 -1.0000 -0.0050
vn -0.0006 -0.0050 1.0000
vn 1.0000 -0.0000 0.0006
usemtl Default_OBJ.004
s 1
f 1/1/1 2/2/1 3/3/1 4/4/1
f 5/5/2 4/6/2 3/7/2 6/8/2
f 6/8/3 3/7/3 2/9/3 7/10/3
f 7/10/4 8/11/4 5/12/4 6/13/4
f 8/14/5 1/15/5 4/16/5 5/17/5
f 7/18/6 2/19/6 1/20/6 8/11/6
f 9/21/1 10/22/1 11/23/1 12/24/1
f 13/25/3 12/26/3 11/27/3 14/28/3
f 14/28/6 11/27/6 10/29/6 15/30/6
f 15/30/4 16/31/4 13/32/4 14/33/4
f 16/34/2 9/35/2 12/36/2 13/37/2
f 15/38/5 10/39/5 9/40/5 16/31/5
f 17/41/1 18/42/1 19/43/1 20/44/1
f 21/45/3 20/46/3 19/47/3 22/48/3
f 22/48/6 19/47/6 18/49/6 23/50/6
f 23/50/4 24/51/4 21/52/4 22/53/4
f 24/54/2 17/55/2 20/56/2 21/57/2
f 23/58/5 18/59/5 17/60/5 24/51/5
f 25/61/1 26/62/1 27/63/1 28/64/1
f 29/65/2 28/66/2 27/67/2 30/68/2
f 30/68/3 27/67/3 26/69/3 31/70/3
f 31/70/4 32/71/4 29/72/4 30/73/4
f 32/74/5 25/75/5 28/76/5 29/77/5
f 31/78/6 26/79/6 25/80/6 32/71/6
f 33/81/1 34/82/1 35/83/1 36/84/1
f 37/85/3 36/86/3 35/87/3 38/88/3
f 38/88/6 35/87/6 34/89/6 39/90/6
f 39/90/4 40/91/4 37/92/4 38/93/4
f 40/94/2 33/95/2 36/96/2 37/97/2
f 39/98/5 34/99/5 33/100/5 40/91/5
f 41/101/1 42/102/1 43/103/1 44/104/1
f 45/105/3 44/106/3 43/107/3 46/108/3
f 46/108/6 43/107/6 42/109/6 47/110/6
f 47/110/4 48/111/4 45/112/4 46/113/4
f 48/114/2 41/115/2 44/116/2 45/117/2
f 47/118/5 42/119/5 41/120/5 48/111/5
f 49/121/1 50/122/1 51/123/1 52/124/1
f 53/125/2 52/126/2 51/127/2 54/128/2
f 54/128/3 51/127/3 50/129/3 55/130/3
f 55/130/4 56/131/4 53/132/4 54/133/4
f 56/134/5 49/135/5 52/136/5 53/137/5
f 55/138/6 50/139/6 49/140/6 56/131/6
f 57/141/1 58/142/1 59/143/1 60/144/1
f 61/145/2 60/146/2 59/147/2 62/148/2
f 62/148/3 59/147/3 58/149/3 63/150/3
f 63/150/4 64/151/4 61/152/4 62/153/4
f 64/154/5 57/155/5 60/156/5 61/157/5
f 63/158/6 58/159/6 57/160/6 64/151/6
f 65/161/1 66/162/1 67/163/1 68/164/1
f 69/165/2 68/166/2 67/167/2 70/168/2
f 70/168/3 67/167/3 66/169/3 71/170/3
f 71/170/4 72/171/4 69/172/4 70/173/4
f 72/174/5 65/175/5 68/176/5 69/177/5
f 71/178/6 66/179/6 65/180/6 72/171/6
f 73/181/1 74/182/1 75/183/1 76/184/1
f 77/185/2 76/186/2 75/187/2 78/188/2
f 78/188/3 75/187/3 74/189/3 79/190/3
f 79/190/4 80/191/4 77/192/4 78/193/4
f 80/194/5 73/195/5 76/196/5 77/197/5
f 79/198/6 74/199/6 73/200/6 80/191/6
f 81/201/1 82/202/1 83/203/1 84/204/1
f 85/205/2 84/206/2 83/207/2 86/208/2
f 86/208/3 83/207/3 82/209/3 87/210/3
f 87/210/4 88/211/4 85/212/4 86/213/4
f 88/214/5 81/215/5 84/216/5 85/217/5
f 87/218/6 82/219/6 81/220/6 88/211/6
f 89/221/1 90/222/1 91/223/1 92/224/1
f 93/225/2 92/226/2 91/227/2 94/228/2
f 94/228/3 91/227/3 90/229/3 95/230/3
f 95/230/4 96/231/4 93/232/4 94/233/4
f 96/234/5 89/235/5 92/236/5 93/237/5
f 95/238/6 90/239/6 89/240/6 96/231/6
f 97/241/1 98/242/1 99/243/1 100/244/1
f 101/245/2 100/246/2 99/247/2 102/248/2
f 102/248/3 99/247/3 98/249/3 103/250/3
f 103/250/4 104/251/4 101/252/4 102/253/4
f 104/254/5 97/255/5 100/256/5 101/257/5
f 103/258/6 98/259/6 97/260/6 104/251/6
f 105/261/1 106/262/1 107/263/1 108/264/1
f 109/265/2 108/266/2 107/267/2 110/268/2
f 110/268/3 107/267/3 106/269/3 111/270/3
f 111/270/4 112/271/4 109/272/4 110/273/4
f 112/274/5 105/275/5 108/276/5 109/277/5
f 111/278/6 106/279/6 105/280/6 112/271/6
f 113/281/1 114/282/1 115/283/1 116/284/1
f 117/285/2 116/286/2 115/287/2 118/288/2
f 118/288/3 115/287/3 114/289/3 119/290/3
f 119/290/4 120/291/4 117/292/4 118/293/4
f 120/294/5 113/295/5 116/296/5 117/297/5
f 119/298/6 114/299/6 113/300/6 120/291/6
f 121/301/1 122/302/1 123/303/1 124/304/1
f 125/305/2 124/306/2 123/307/2 126/308/2
f 126/308/3 123/307/3 122/309/3 127/310/3
f 127/310/4 128/311/4 125/312/4 126/313/4
f 128/314/5 121/315/5 124/316/5 125/317/5
f 127/318/6 122/319/6 121/320/6 128/311/6
f 129/321/1 130/322/1 131/323/1 132/324/1
f 133/325/2 132/326/2 131/327/2 134/328/2
f 134/328/3 131/327/3 130/329/3 135/330/3
f 135/330/4 136/331/4 133/332/4 134/333/4
f 136/334/5 129/335/5 132/336/5 133/337/5
f 135/338/6 130/339/6 129/340/6 136/331/6
