# Blender v2.80 (sub 75) OBJ File: ''
# www.blender.org
mtllib right_panel_far3.mtl
o Cube.001_Cube.002_Cube.001_Cube.012
v 44.820683 138.773727 -351.196106
v 44.820740 138.773788 -354.196106
v -40.529224 138.773804 -354.143707
v -40.529274 138.773743 -351.143707
v -40.529282 136.773712 -351.152100
v -40.529232 136.773773 -354.152100
v 44.820728 136.773773 -354.204498
v 44.820679 136.773697 -351.204498
v -42.539772 138.765930 -5.926210
v -37.539776 138.765930 -5.929291
v -37.533852 138.773819 -355.366974
v -42.533848 138.773834 -355.363892
v -42.533855 136.773804 -355.372284
v -37.533859 136.773804 -355.375366
v -37.539783 136.765915 -5.937696
v -42.539780 136.765930 -5.934616
v -2.467076 138.765930 -5.950815
v 2.532919 138.765930 -5.953896
v 2.538838 138.773819 -355.391571
v -2.461156 138.773819 -355.388489
v -2.461164 136.773804 -355.396881
v 2.538830 136.773804 -355.399963
v 2.532911 136.765915 -5.962301
v -2.467084 136.765915 -5.959220
v 44.815781 138.767181 -61.973026
v 44.815834 138.767242 -64.973000
v -40.534130 138.767273 -64.920609
v -40.534180 138.767197 -61.920635
v -40.534187 136.767181 -61.929039
v -40.534138 136.767242 -64.929016
v 44.815826 136.767242 -64.981407
v 44.815777 136.767181 -61.981434
v 41.898430 138.765930 -5.978065
v 46.898430 138.765915 -5.981123
v 46.904346 138.773819 -355.418793
v 41.904346 138.773804 -355.415710
v 41.904335 136.773788 -355.424133
v 46.904339 136.773804 -355.427185
v 46.898418 136.765915 -5.989529
v 41.898422 136.765900 -5.986470
v -2.467076 138.765930 -5.950815
v 2.532919 138.765930 -5.953896
v 2.538838 138.773819 -355.391571
v -2.461156 138.773819 -355.388489
v -2.461164 136.773804 -355.396881
v 2.538830 136.773804 -355.399963
v 2.532911 136.765915 -5.962301
v -2.467084 136.765915 -5.959220
v 44.816254 138.767807 -89.592773
v 44.816303 138.767883 -92.592773
v -40.533653 138.767883 -92.540382
v -40.533707 138.767822 -89.540382
v -40.533722 136.767807 -89.548790
v -40.533661 136.767883 -92.548782
v 44.816296 136.767868 -92.601181
v 44.816246 136.767807 -89.601181
v 44.817219 138.769104 -146.697754
v 44.817268 138.769180 -149.697723
v -40.532696 138.769180 -149.645325
v -40.532745 138.769119 -146.645340
v -40.532757 136.769104 -146.653763
v -40.532707 136.769180 -149.653732
v 44.817257 136.769150 -149.706116
v 44.817207 136.769089 -146.706146
v 44.814850 138.765945 -6.785345
v 44.814903 138.766006 -9.785341
v -40.535061 138.766006 -9.732948
v -40.535110 138.765945 -6.732952
v -40.535118 136.765945 -6.741357
v -40.535065 136.766006 -9.741353
v 44.814892 136.766006 -9.793746
v 44.814842 136.765930 -6.793750
v 44.815319 138.766556 -34.451538
v 44.815369 138.766632 -37.451508
v -40.534595 138.766647 -37.399117
v -40.534645 138.766571 -34.399143
v -40.534653 136.766556 -34.407547
v -40.534603 136.766632 -37.407520
v 44.815361 136.766617 -37.459915
v 44.815311 136.766556 -34.459942
v 44.817726 138.769760 -176.253250
v 44.817776 138.769836 -179.253204
v -40.532188 138.769852 -179.200821
v -40.532238 138.769775 -176.200851
v -40.532249 136.769775 -176.209244
v -40.532196 136.769852 -179.209213
v 44.817764 136.769821 -179.261612
v 44.817711 136.769760 -176.261627
v 44.818218 138.770416 -205.463165
v 44.818268 138.770493 -208.463165
v -40.531693 138.770508 -208.410751
v -40.531750 138.770447 -205.410782
v -40.531761 136.770432 -205.419159
v -40.531712 136.770508 -208.419159
v 44.818256 136.770477 -208.471558
v 44.818207 136.770416 -205.471573
v 44.816723 138.768433 -117.373001
v 44.816772 138.768509 -120.372971
v -40.533188 138.768524 -120.320572
v -40.533237 138.768448 -117.320610
v -40.533253 136.768448 -117.329010
v -40.533195 136.768509 -120.328979
v 44.816761 136.768494 -120.381371
v 44.816715 136.768417 -117.381409
v 44.818710 138.771103 -235.060623
v 44.818760 138.771164 -238.060608
v -40.531200 138.771179 -238.008209
v -40.531254 138.771118 -235.008209
v -40.531258 136.771088 -235.016617
v -40.531208 136.771164 -238.016617
v 44.818756 136.771164 -238.068985
v 44.818703 136.771088 -235.069016
v 44.819195 138.771744 -263.329773
v 44.819244 138.771805 -266.329742
v -40.530720 138.771820 -266.277374
v -40.530769 138.771744 -263.277374
v -40.530777 136.771744 -263.285767
v -40.530724 136.771805 -266.285767
v 44.819237 136.771790 -266.338165
v 44.819187 136.771729 -263.338135
v 44.819683 138.772385 -292.001190
v 44.819733 138.772461 -295.001190
v -40.530231 138.772461 -294.948792
v -40.530281 138.772400 -291.948792
v -40.530289 136.772369 -291.957214
v -40.530239 136.772446 -294.957184
v 44.819725 136.772415 -295.009583
v 44.819675 136.772354 -292.009583
v 44.820168 138.773041 -321.078308
v 44.820217 138.773102 -324.078308
v -40.529739 138.773117 -324.025909
v -40.529793 138.773056 -321.025909
v -40.529797 136.773041 -321.034302
v -40.529747 136.773102 -324.034271
v 44.820213 136.773087 -324.086670
v 44.820160 136.773010 -321.086700
vt 0.375000 0.000000
vt 0.625000 0.000000
vt 0.625000 0.250000
vt 0.375000 0.250000
vt 0.375000 0.250000
vt 0.625000 0.250000
vt 0.625000 0.500000
vt 0.375000 0.500000
vt 0.625000 0.750000
vt 0.375000 0.750000
vt 0.625000 0.750000
vt 0.625000 1.000000
vt 0.375000 1.000000
vt 0.125000 0.500000
vt 0.375000 0.500000
vt 0.375000 0.750000
vt 0.125000 0.750000
vt 0.625000 0.500000
vt 0.875000 0.500000
vt 0.875000 0.750000
vt 0.375000 0.000000
vt 0.625000 0.000000
vt 0.625000 0.250000
vt 0.375000 0.250000
vt 0.375000 0.250000
vt 0.625000 0.250000
vt 0.625000 0.500000
vt 0.375000 0.500000
vt 0.625000 0.750000
vt 0.375000 0.750000
vt 0.625000 0.750000
vt 0.625000 1.000000
vt 0.375000 1.000000
vt 0.125000 0.500000
vt 0.375000 0.500000
vt 0.375000 0.750000
vt 0.125000 0.750000
vt 0.625000 0.500000
vt 0.875000 0.500000
vt 0.875000 0.750000
vt 0.375000 0.000000
vt 0.625000 0.000000
vt 0.625000 0.250000
vt 0.375000 0.250000
vt 0.375000 0.250000
vt 0.625000 0.250000
vt 0.625000 0.500000
vt 0.375000 0.500000
vt 0.625000 0.750000
vt 0.375000 0.750000
vt 0.625000 0.750000
vt 0.625000 1.000000
vt 0.375000 1.000000
vt 0.125000 0.500000
vt 0.375000 0.500000
vt 0.375000 0.750000
vt 0.125000 0.750000
vt 0.625000 0.500000
vt 0.875000 0.500000
vt 0.875000 0.750000
vt 0.375000 0.000000
vt 0.625000 0.000000
vt 0.625000 0.250000
vt 0.375000 0.250000
vt 0.375000 0.250000
vt 0.625000 0.250000
vt 0.625000 0.500000
vt 0.375000 0.500000
vt 0.625000 0.750000
vt 0.375000 0.750000
vt 0.625000 0.750000
vt 0.625000 1.000000
vt 0.375000 1.000000
vt 0.125000 0.500000
vt 0.375000 0.500000
vt 0.375000 0.750000
vt 0.125000 0.750000
vt 0.625000 0.500000
vt 0.875000 0.500000
vt 0.875000 0.750000
vt 0.375000 0.000000
vt 0.625000 0.000000
vt 0.625000 0.250000
vt 0.375000 0.250000
vt 0.375000 0.250000
vt 0.625000 0.250000
vt 0.625000 0.500000
vt 0.375000 0.500000
vt 0.625000 0.750000
vt 0.375000 0.750000
vt 0.625000 0.750000
vt 0.625000 1.000000
vt 0.375000 1.000000
vt 0.125000 0.500000
vt 0.375000 0.500000
vt 0.375000 0.750000
vt 0.125000 0.750000
vt 0.625000 0.500000
vt 0.875000 0.500000
vt 0.875000 0.750000
vt 0.375000 0.000000
vt 0.625000 0.000000
vt 0.625000 0.250000
vt 0.375000 0.250000
vt 0.375000 0.250000
vt 0.625000 0.250000
vt 0.625000 0.500000
vt 0.375000 0.500000
vt 0.625000 0.750000
vt 0.375000 0.750000
vt 0.625000 0.750000
vt 0.625000 1.000000
vt 0.375000 1.000000
vt 0.125000 0.500000
vt 0.375000 0.500000
vt 0.375000 0.750000
vt 0.125000 0.750000
vt 0.625000 0.500000
vt 0.875000 0.500000
vt 0.875000 0.750000
vt 0.375000 0.000000
vt 0.625000 0.000000
vt 0.625000 0.250000
vt 0.375000 0.250000
vt 0.375000 0.250000
vt 0.625000 0.250000
vt 0.625000 0.500000
vt 0.375000 0.500000
vt 0.625000 0.750000
vt 0.375000 0.750000
vt 0.625000 0.750000
vt 0.625000 1.000000
vt 0.375000 1.000000
vt 0.125000 0.500000
vt 0.375000 0.500000
vt 0.375000 0.750000
vt 0.125000 0.750000
vt 0.625000 0.500000
vt 0.875000 0.500000
vt 0.875000 0.750000
vt 0.375000 0.000000
vt 0.625000 0.000000
vt 0.625000 0.250000
vt 0.375000 0.250000
vt 0.375000 0.250000
vt 0.625000 0.250000
vt 0.625000 0.500000
vt 0.375000 0.500000
vt 0.625000 0.750000
vt 0.375000 0.750000
vt 0.625000 0.750000
vt 0.625000 1.000000
vt 0.375000 1.000000
vt 0.125000 0.500000
vt 0.375000 0.500000
vt 0.375000 0.750000
vt 0.125000 0.750000
vt 0.625000 0.500000
vt 0.875000 0.500000
vt 0.875000 0.750000
vt 0.375000 0.000000
vt 0.625000 0.000000
vt 0.625000 0.250000
vt 0.375000 0.250000
vt 0.375000 0.250000
vt 0.625000 0.250000
vt 0.625000 0.500000
vt 0.375000 0.500000
vt 0.625000 0.750000
vt 0.375000 0.750000
vt 0.625000 0.750000
vt 0.625000 1.000000
vt 0.375000 1.000000
vt 0.125000 0.500000
vt 0.375000 0.500000
vt 0.375000 0.750000
vt 0.125000 0.750000
vt 0.625000 0.500000
vt 0.875000 0.500000
vt 0.875000 0.750000
vt 0.375000 0.000000
vt 0.625000 0.000000
vt 0.625000 0.250000
vt 0.375000 0.250000
vt 0.375000 0.250000
vt 0.625000 0.250000
vt 0.625000 0.500000
vt 0.375000 0.500000
vt 0.625000 0.750000
vt 0.375000 0.750000
vt 0.625000 0.750000
vt 0.625000 1.000000
vt 0.375000 1.000000
vt 0.125000 0.500000
vt 0.375000 0.500000
vt 0.375000 0.750000
vt 0.125000 0.750000
vt 0.625000 0.500000
vt 0.875000 0.500000
vt 0.875000 0.750000
vt 0.375000 0.000000
vt 0.625000 0.000000
vt 0.625000 0.250000
vt 0.375000 0.250000
vt 0.375000 0.250000
vt 0.625000 0.250000
vt 0.625000 0.500000
vt 0.375000 0.500000
vt 0.625000 0.750000
vt 0.375000 0.750000
vt 0.625000 0.750000
vt 0.625000 1.000000
vt 0.375000 1.000000
vt 0.125000 0.500000
vt 0.375000 0.500000
vt 0.375000 0.750000
vt 0.125000 0.750000
vt 0.625000 0.500000
vt 0.875000 0.500000
vt 0.875000 0.750000
vt 0.375000 0.000000
vt 0.625000 0.000000
vt 0.625000 0.250000
vt 0.375000 0.250000
vt 0.375000 0.250000
vt 0.625000 0.250000
vt 0.625000 0.500000
vt 0.375000 0.500000
vt 0.625000 0.750000
vt 0.375000 0.750000
vt 0.625000 0.750000
vt 0.625000 1.000000
vt 0.375000 1.000000
vt 0.125000 0.500000
vt 0.375000 0.500000
vt 0.375000 0.750000
vt 0.125000 0.750000
vt 0.625000 0.500000
vt 0.875000 0.500000
vt 0.875000 0.750000
vt 0.375000 0.000000
vt 0.625000 0.000000
vt 0.625000 0.250000
vt 0.375000 0.250000
vt 0.375000 0.250000
vt 0.625000 0.250000
vt 0.625000 0.500000
vt 0.375000 0.500000
vt 0.625000 0.750000
vt 0.375000 0.750000
vt 0.625000 0.750000
vt 0.625000 1.000000
vt 0.375000 1.000000
vt 0.125000 0.500000
vt 0.375000 0.500000
vt 0.375000 0.750000
vt 0.125000 0.750000
vt 0.625000 0.500000
vt 0.875000 0.500000
vt 0.875000 0.750000
vt 0.375000 0.000000
vt 0.625000 0.000000
vt 0.625000 0.250000
vt 0.375000 0.250000
vt 0.375000 0.250000
vt 0.625000 0.250000
vt 0.625000 0.500000
vt 0.375000 0.500000
vt 0.625000 0.750000
vt 0.375000 0.750000
vt 0.625000 0.750000
vt 0.625000 1.000000
vt 0.375000 1.000000
vt 0.125000 0.500000
vt 0.375000 0.500000
vt 0.375000 0.750000
vt 0.125000 0.750000
vt 0.625000 0.500000
vt 0.875000 0.500000
vt 0.875000 0.750000
vt 0.375000 0.000000
vt 0.625000 0.000000
vt 0.625000 0.250000
vt 0.375000 0.250000
vt 0.375000 0.250000
vt 0.625000 0.250000
vt 0.625000 0.500000
vt 0.375000 0.500000
vt 0.625000 0.750000
vt 0.375000 0.750000
vt 0.625000 0.750000
vt 0.625000 1.000000
vt 0.375000 1.000000
vt 0.125000 0.500000
vt 0.375000 0.500000
vt 0.375000 0.750000
vt 0.125000 0.750000
vt 0.625000 0.500000
vt 0.875000 0.500000
vt 0.875000 0.750000
vt 0.375000 0.000000
vt 0.625000 0.000000
vt 0.625000 0.250000
vt 0.375000 0.250000
vt 0.375000 0.250000
vt 0.625000 0.250000
vt 0.625000 0.500000
vt 0.375000 0.500000
vt 0.625000 0.750000
vt 0.375000 0.750000
vt 0.625000 0.750000
vt 0.625000 1.000000
vt 0.375000 1.000000
vt 0.125000 0.500000
vt 0.375000 0.500000
vt 0.375000 0.750000
vt 0.125000 0.750000
vt 0.625000 0.500000
vt 0.875000 0.500000
vt 0.875000 0.750000
vt 0.375000 0.000000
vt 0.625000 0.000000
vt 0.625000 0.250000
vt 0.375000 0.250000
vt 0.375000 0.250000
vt 0.625000 0.250000
vt 0.625000 0.500000
vt 0.375000 0.500000
vt 0.625000 0.750000
vt 0.375000 0.750000
vt 0.625000 0.750000
vt 0.625000 1.000000
vt 0.375000 1.000000
vt 0.125000 0.500000
vt 0.375000 0.500000
vt 0.375000 0.750000
vt 0.125000 0.750000
vt 0.625000 0.500000
vt 0.875000 0.500000
vt 0.875000 0.750000
vn 0.0000 1.0000 0.0000
vn -1.0000 0.0000 -0.0000
vn -0.0006 0.0042 -1.0000
vn -0.0000 -1.0000 -0.0000
vn 0.0006 -0.0042 1.0000
vn 1.0000 -0.0000 0.0000
usemtl Default_OBJ.044
s 1
f 1/1/1 2/2/1 3/3/1 4/4/1
f 5/5/2 4/6/2 3/7/2 6/8/2
f 6/8/3 3/7/3 2/9/3 7/10/3
f 7/10/4 8/11/4 5/12/4 6/13/4
f 8/14/5 1/15/5 4/16/5 5/17/5
f 7/18/6 2/19/6 1/20/6 8/11/6
f 9/21/1 10/22/1 11/23/1 12/24/1
f 13/25/3 12/26/3 11/27/3 14/28/3
f 14/28/6 11/27/6 10/29/6 15/30/6
f 15/30/4 16/31/4 13/32/4 14/33/4
f 16/34/2 9/35/2 12/36/2 13/37/2
f 15/38/5 10/39/5 9/40/5 16/31/5
f 17/41/1 18/42/1 19/43/1 20/44/1
f 21/45/3 20/46/3 19/47/3 22/48/3
f 22/48/6 19/47/6 18/49/6 23/50/6
f 23/50/4 24/51/4 21/52/4 22/53/4
f 24/54/2 17/55/2 20/56/2 21/57/2
f 23/58/5 18/59/5 17/60/5 24/51/5
f 25/61/1 26/62/1 27/63/1 28/64/1
f 29/65/2 28/66/2 27/67/2 30/68/2
f 30/68/3 27/67/3 26/69/3 31/70/3
f 31/70/4 32/71/4 29/72/4 30/73/4
f 32/74/5 25/75/5 28/76/5 29/77/5
f 31/78/6 26/79/6 25/80/6 32/71/6
f 33/81/1 34/82/1 35/83/1 36/84/1
f 37/85/3 36/86/3 35/87/3 38/88/3
f 38/88/6 35/87/6 34/89/6 39/90/6
f 39/90/4 40/91/4 37/92/4 38/93/4
f 40/94/2 33/95/2 36/96/2 37/97/2
f 39/98/5 34/99/5 33/100/5 40/91/5
f 41/101/1 42/102/1 43/103/1 44/104/1
f 45/105/3 44/106/3 43/107/3 46/108/3
f 46/108/6 43/107/6 42/109/6 47/110/6
f 47/110/4 48/111/4 45/112/4 46/113/4
f 48/114/2 41/115/2 44/116/2 45/117/2
f 47/118/5 42/119/5 41/120/5 48/111/5
f 49/121/1 50/122/1 51/123/1 52/124/1
f 53/125/2 52/126/2 51/127/2 54/128/2
f 54/128/3 51/127/3 50/129/3 55/130/3
f 55/130/4 56/131/4 53/132/4 54/133/4
f 56/134/5 49/135/5 52/136/5 53/137/5
f 55/138/6 50/139/6 49/140/6 56/131/6
f 57/141/1 58/142/1 59/143/1 60/144/1
f 61/145/2 60/146/2 59/147/2 62/148/2
f 62/148/3 59/147/3 58/149/3 63/150/3
f 63/150/4 64/151/4 61/152/4 62/153/4
f 64/154/5 57/155/5 60/156/5 61/157/5
f 63/158/6 58/159/6 57/160/6 64/151/6
f 65/161/1 66/162/1 67/163/1 68/164/1
f 69/165/2 68/166/2 67/167/2 70/168/2
f 70/168/3 67/167/3 66/169/3 71/170/3
f 71/170/4 72/171/4 69/172/4 70/173/4
f 72/174/5 65/175/5 68/176/5 69/177/5
f 71/178/6 66/179/6 65/180/6 72/171/6
f 73/181/1 74/182/1 75/183/1 76/184/1
f 77/185/2 76/186/2 75/187/2 78/188/2
f 78/188/3 75/187/3 74/189/3 79/190/3
f 79/190/4 80/191/4 77/192/4 78/193/4
f 80/194/5 73/195/5 76/196/5 77/197/5
f 79/198/6 74/199/6 73/200/6 80/191/6
f 81/201/1 82/202/1 83/203/1 84/204/1
f 85/205/2 84/206/2 83/207/2 86/208/2
f 86/208/3 83/207/3 82/209/3 87/210/3
f 87/210/4 88/211/4 85/212/4 86/213/4
f 88/214/5 81/215/5 84/216/5 85/217/5
f 87/218/6 82/219/6 81/220/6 88/211/6
f 89/221/1 90/222/1 91/223/1 92/224/1
f 93/225/2 92/226/2 91/227/2 94/228/2
f 94/228/3 91/227/3 90/229/3 95/230/3
f 95/230/4 96/231/4 93/232/4 94/233/4
f 96/234/5 89/235/5 92/236/5 93/237/5
f 95/238/6 90/239/6 89/240/6 96/231/6
f 97/241/1 98/242/1 99/243/1 100/244/1
f 101/245/2 100/246/2 99/247/2 102/248/2
f 102/248/3 99/247/3 98/249/3 103/250/3
f 103/250/4 104/251/4 101/252/4 102/253/4
f 104/254/5 97/255/5 100/256/5 101/257/5
f 103/258/6 98/259/6 97/260/6 104/251/6
f 105/261/1 106/262/1 107/263/1 108/264/1
f 109/265/2 108/266/2 107/267/2 110/268/2
f 110/268/3 107/267/3 106/269/3 111/270/3
f 111/270/4 112/271/4 109/272/4 110/273/4
f 112/274/5 105/275/5 108/276/5 109/277/5
f 111/278/6 106/279/6 105/280/6 112/271/6
f 113/281/1 114/282/1 115/283/1 116/284/1
f 117/285/2 116/286/2 115/287/2 118/288/2
f 118/288/3 115/287/3 114/289/3 119/290/3
f 119/290/4 120/291/4 117/292/4 118/293/4
f 120/294/5 113/295/5 116/296/5 117/297/5
f 119/298/6 114/299/6 113/300/6 120/291/6
f 121/301/1 122/302/1 123/303/1 124/304/1
f 125/305/2 124/306/2 123/307/2 126/308/2
f 126/308/3 123/307/3 122/309/3 127/310/3
f 127/310/4 128/311/4 125/312/4 126/313/4
f 128/314/5 121/315/5 124/316/5 125/317/5
f 127/318/6 122/319/6 121/320/6 128/311/6
f 129/321/1 130/322/1 131/323/1 132/324/1
f 133/325/2 132/326/2 131/327/2 134/328/2
f 134/328/3 131/327/3 130/329/3 135/330/3
f 135/330/4 136/331/4 133/332/4 134/333/4
f 136/334/5 129/335/5 132/336/5 133/337/5
f 135/338/6 130/339/6 129/340/6 136/331/6
