# Blender v2.80 (sub 75) OBJ File: ''
# www.blender.org
mtllib right_panel_near.mtl
o Cube.021_Cube.001_Cube.021_Cube.015_Cube.021_Cube.001_Cube.021_Cube.004
v 89.641380 136.744720 -522.433838
v 89.641495 136.744781 -526.933777
v -81.058434 136.744797 -526.855164
v -81.058533 136.744736 -522.355225
v -81.058548 134.744720 -522.367798
v -81.058449 134.744781 -526.867798
v 89.641472 134.744781 -526.946411
v 89.641373 134.744705 -522.446411
v -85.079529 136.736938 -4.528954
v -75.079536 136.736954 -4.533577
v -75.067688 136.744812 -528.690125
v -85.067680 136.744827 -528.685486
v -85.067696 134.744812 -528.698120
v -75.067703 134.744812 -528.702637
v -75.079552 134.736923 -4.546188
v -85.079544 134.736938 -4.541565
v -4.934137 136.736923 -4.565872
v 5.065850 136.736938 -4.570496
v 5.077690 136.744812 -528.727051
v -4.922297 136.744812 -528.722412
v -4.922316 134.744812 -528.734985
v 5.077674 134.744797 -528.739563
v 5.065834 134.736923 -4.583084
v -4.934154 134.736923 -4.578484
v 89.631577 136.738190 -88.599182
v 89.631683 136.738251 -93.099152
v -81.068245 136.738281 -93.020554
v -81.068344 136.738205 -88.520599
v -81.068367 134.738190 -88.533203
v -81.068268 134.738251 -93.033165
v 89.631660 134.738251 -93.111755
v 89.631561 134.738190 -88.611786
v 83.796875 136.736938 -4.606728
v 93.796875 136.736923 -4.611328
v 93.808708 136.744812 -528.767822
v 83.808708 136.744812 -528.763245
v 83.808685 134.744797 -528.775879
v 93.808693 134.744812 -528.780396
v 93.796852 134.736923 -4.623940
v 83.796860 134.736908 -4.619339
v -4.934137 136.736923 -4.565872
v 5.065850 136.736938 -4.570496
v 5.077690 136.744812 -528.727051
v -4.922297 136.744812 -528.722412
v -4.922316 134.744812 -528.734985
v 5.077674 134.744797 -528.739563
v 5.065834 134.736923 -4.583084
v -4.934154 134.736923 -4.578484
v 89.632523 136.738815 -130.028809
v 89.632622 136.738892 -134.528809
v -81.067291 136.738892 -134.450211
v -81.067398 136.738831 -129.950211
v -81.067436 134.738800 -129.962830
v -81.067314 134.738876 -134.462814
v 89.632599 134.738861 -134.541412
v 89.632500 134.738800 -130.041412
v 89.634445 136.740112 -215.686279
v 89.634544 136.740189 -220.186218
v -81.065384 136.740189 -220.107635
v -81.065483 136.740128 -215.607666
v -81.065498 134.740097 -215.620285
v -81.065399 134.740173 -220.120239
v 89.634529 134.740143 -220.198822
v 89.634430 134.740082 -215.698853
v 89.629715 136.736954 -5.817650
v 89.629822 136.737015 -10.317650
v -81.070107 136.737015 -10.239075
v -81.070206 136.736954 -5.739075
v -81.070221 134.736954 -5.751686
v -81.070114 134.737015 -10.251663
v 89.629799 134.737015 -10.330261
v 89.629700 134.736938 -5.830261
v 89.630653 136.737564 -47.316948
v 89.630753 136.737640 -51.816902
v -81.069176 136.737656 -51.738327
v -81.069275 136.737595 -47.238350
v -81.069298 134.737564 -47.250961
v -81.069199 134.737640 -51.750916
v 89.630730 134.737625 -51.829514
v 89.630630 134.737564 -47.329559
v 89.635460 136.740768 -260.019531
v 89.635559 136.740845 -264.519440
v -81.064369 136.740860 -264.440857
v -81.064468 136.740784 -259.940918
v -81.064484 134.740768 -259.953491
v -81.064377 134.740845 -264.453491
v 89.635544 134.740814 -264.532043
v 89.635437 134.740753 -260.032074
v 89.636444 136.741425 -303.834381
v 89.636543 136.741501 -308.334381
v -81.063377 136.741516 -308.255768
v -81.063492 136.741455 -303.755798
v -81.063507 134.741425 -303.768372
v -81.063408 134.741501 -308.268372
v 89.636528 134.741470 -308.346985
v 89.636429 134.741409 -303.846985
v 89.633461 136.739441 -171.699142
v 89.633560 136.739517 -176.199097
v -81.066360 136.739532 -176.120514
v -81.066460 136.739456 -171.620560
v -81.066498 134.739441 -171.633163
v -81.066376 134.739502 -176.133118
v 89.633537 134.739487 -176.211700
v 89.633438 134.739410 -171.711761
v 89.637436 136.742111 -348.230591
v 89.637535 136.742172 -352.730560
v -81.062386 136.742188 -352.651978
v -81.062492 136.742126 -348.151947
v -81.062500 134.742096 -348.164581
v -81.062401 134.742157 -352.664551
v 89.637527 134.742157 -352.743103
v 89.637421 134.742081 -348.243164
v 89.638405 136.742752 -390.634277
v 89.638504 136.742813 -395.134216
v -81.061424 136.742828 -395.055664
v -81.061523 136.742752 -390.555664
v -81.061539 134.742737 -390.568298
v -81.061432 134.742798 -395.068268
v 89.638489 134.742783 -395.146851
v 89.638390 134.742722 -390.646851
v 89.639381 136.743393 -433.641449
v 89.639481 136.743469 -438.141449
v -81.060448 136.743469 -438.062866
v -81.060547 136.743408 -433.562866
v -81.060562 134.743378 -433.575439
v -81.060463 134.743454 -438.075378
v 89.639465 134.743423 -438.153992
v 89.639366 134.743362 -433.653992
v 89.640350 136.744034 -477.257080
v 89.640450 136.744095 -481.757080
v -81.059464 136.744110 -481.678467
v -81.059570 136.744049 -477.178528
v -81.059578 134.744049 -477.191101
v -81.059479 134.744110 -481.691071
v 89.640442 134.744095 -481.769653
v 89.640335 134.744019 -477.269714
vt 0.375000 0.000000
vt 0.625000 0.000000
vt 0.625000 0.250000
vt 0.375000 0.250000
vt 0.375000 0.250000
vt 0.625000 0.250000
vt 0.625000 0.500000
vt 0.375000 0.500000
vt 0.625000 0.750000
vt 0.375000 0.750000
vt 0.625000 0.750000
vt 0.625000 1.000000
vt 0.375000 1.000000
vt 0.125000 0.500000
vt 0.375000 0.500000
vt 0.375000 0.750000
vt 0.125000 0.750000
vt 0.625000 0.500000
vt 0.875000 0.500000
vt 0.875000 0.750000
vt 0.375000 0.000000
vt 0.625000 0.000000
vt 0.625000 0.250000
vt 0.375000 0.250000
vt 0.375000 0.250000
vt 0.625000 0.250000
vt 0.625000 0.500000
vt 0.375000 0.500000
vt 0.625000 0.750000
vt 0.375000 0.750000
vt 0.625000 0.750000
vt 0.625000 1.000000
vt 0.375000 1.000000
vt 0.125000 0.500000
vt 0.375000 0.500000
vt 0.375000 0.750000
vt 0.125000 0.750000
vt 0.625000 0.500000
vt 0.875000 0.500000
vt 0.875000 0.750000
vt 0.375000 0.000000
vt 0.625000 0.000000
vt 0.625000 0.250000
vt 0.375000 0.250000
vt 0.375000 0.250000
vt 0.625000 0.250000
vt 0.625000 0.500000
vt 0.375000 0.500000
vt 0.625000 0.750000
vt 0.375000 0.750000
vt 0.625000 0.750000
vt 0.625000 1.000000
vt 0.375000 1.000000
vt 0.125000 0.500000
vt 0.375000 0.500000
vt 0.375000 0.750000
vt 0.125000 0.750000
vt 0.625000 0.500000
vt 0.875000 0.500000
vt 0.875000 0.750000
vt 0.375000 0.000000
vt 0.625000 0.000000
vt 0.625000 0.250000
vt 0.375000 0.250000
vt 0.375000 0.250000
vt 0.625000 0.250000
vt 0.625000 0.500000
vt 0.375000 0.500000
vt 0.625000 0.750000
vt 0.375000 0.750000
vt 0.625000 0.750000
vt 0.625000 1.000000
vt 0.375000 1.000000
vt 0.125000 0.500000
vt 0.375000 0.500000
vt 0.375000 0.750000
vt 0.125000 0.750000
vt 0.625000 0.500000
vt 0.875000 0.500000
vt 0.875000 0.750000
vt 0.375000 0.000000
vt 0.625000 0.000000
vt 0.625000 0.250000
vt 0.375000 0.250000
vt 0.375000 0.250000
vt 0.625000 0.250000
vt 0.625000 0.500000
vt 0.375000 0.500000
vt 0.625000 0.750000
vt 0.375000 0.750000
vt 0.625000 0.750000
vt 0.625000 1.000000
vt 0.375000 1.000000
vt 0.125000 0.500000
vt 0.375000 0.500000
vt 0.375000 0.750000
vt 0.125000 0.750000
vt 0.625000 0.500000
vt 0.875000 0.500000
vt 0.875000 0.750000
vt 0.375000 0.000000
vt 0.625000 0.000000
vt 0.625000 0.250000
vt 0.375000 0.250000
vt 0.375000 0.250000
vt 0.625000 0.250000
vt 0.625000 0.500000
vt 0.375000 0.500000
vt 0.625000 0.750000
vt 0.375000 0.750000
vt 0.625000 0.750000
vt 0.625000 1.000000
vt 0.375000 1.000000
vt 0.125000 0.500000
vt 0.375000 0.500000
vt 0.375000 0.750000
vt 0.125000 0.750000
vt 0.625000 0.500000
vt 0.875000 0.500000
vt 0.875000 0.750000
vt 0.375000 0.000000
vt 0.625000 0.000000
vt 0.625000 0.250000
vt 0.375000 0.250000
vt 0.375000 0.250000
vt 0.625000 0.250000
vt 0.625000 0.500000
vt 0.375000 0.500000
vt 0.625000 0.750000
vt 0.375000 0.750000
vt 0.625000 0.750000
vt 0.625000 1.000000
vt 0.375000 1.000000
vt 0.125000 0.500000
vt 0.375000 0.500000
vt 0.375000 0.750000
vt 0.125000 0.750000
vt 0.625000 0.500000
vt 0.875000 0.500000
vt 0.875000 0.750000
vt 0.375000 0.000000
vt 0.625000 0.000000
vt 0.625000 0.250000
vt 0.375000 0.250000
vt 0.375000 0.250000
vt 0.625000 0.250000
vt 0.625000 0.500000
vt 0.375000 0.500000
vt 0.625000 0.750000
vt 0.375000 0.750000
vt 0.625000 0.750000
vt 0.625000 1.000000
vt 0.375000 1.000000
vt 0.125000 0.500000
vt 0.375000 0.500000
vt 0.375000 0.750000
vt 0.125000 0.750000
vt 0.625000 0.500000
vt 0.875000 0.500000
vt 0.875000 0.750000
vt 0.375000 0.000000
vt 0.625000 0.000000
vt 0.625000 0.250000
vt 0.375000 0.250000
vt 0.375000 0.250000
vt 0.625000 0.250000
vt 0.625000 0.500000
vt 0.375000 0.500000
vt 0.625000 0.750000
vt 0.375000 0.750000
vt 0.625000 0.750000
vt 0.625000 1.000000
vt 0.375000 1.000000
vt 0.125000 0.500000
vt 0.375000 0.500000
vt 0.375000 0.750000
vt 0.125000 0.750000
vt 0.625000 0.500000
vt 0.875000 0.500000
vt 0.875000 0.750000
vt 0.375000 0.000000
vt 0.625000 0.000000
vt 0.625000 0.250000
vt 0.375000 0.250000
vt 0.375000 0.250000
vt 0.625000 0.250000
vt 0.625000 0.500000
vt 0.375000 0.500000
vt 0.625000 0.750000
vt 0.375000 0.750000
vt 0.625000 0.750000
vt 0.625000 1.000000
vt 0.375000 1.000000
vt 0.125000 0.500000
vt 0.375000 0.500000
vt 0.375000 0.750000
vt 0.125000 0.750000
vt 0.625000 0.500000
vt 0.875000 0.500000
vt 0.875000 0.750000
vt 0.375000 0.000000
vt 0.625000 0.000000
vt 0.625000 0.250000
vt 0.375000 0.250000
vt 0.375000 0.250000
vt 0.625000 0.250000
vt 0.625000 0.500000
vt 0.375000 0.500000
vt 0.625000 0.750000
vt 0.375000 0.750000
vt 0.625000 0.750000
vt 0.625000 1.000000
vt 0.375000 1.000000
vt 0.125000 0.500000
vt 0.375000 0.500000
vt 0.375000 0.750000
vt 0.125000 0.750000
vt 0.625000 0.500000
vt 0.875000 0.500000
vt 0.875000 0.750000
vt 0.375000 0.000000
vt 0.625000 0.000000
vt 0.625000 0.250000
vt 0.375000 0.250000
vt 0.375000 0.250000
vt 0.625000 0.250000
vt 0.625000 0.500000
vt 0.375000 0.500000
vt 0.625000 0.750000
vt 0.375000 0.750000
vt 0.625000 0.750000
vt 0.625000 1.000000
vt 0.375000 1.000000
vt 0.125000 0.500000
vt 0.375000 0.500000
vt 0.375000 0.750000
vt 0.125000 0.750000
vt 0.625000 0.500000
vt 0.875000 0.500000
vt 0.875000 0.750000
vt 0.375000 0.000000
vt 0.625000 0.000000
vt 0.625000 0.250000
vt 0.375000 0.250000
vt 0.375000 0.250000
vt 0.625000 0.250000
vt 0.625000 0.500000
vt 0.375000 0.500000
vt 0.625000 0.750000
vt 0.375000 0.750000
vt 0.625000 0.750000
vt 0.625000 1.000000
vt 0.375000 1.000000
vt 0.125000 0.500000
vt 0.375000 0.500000
vt 0.375000 0.750000
vt 0.125000 0.750000
vt 0.625000 0.500000
vt 0.875000 0.500000
vt 0.875000 0.750000
vt 0.375000 0.000000
vt 0.625000 0.000000
vt 0.625000 0.250000
vt 0.375000 0.250000
vt 0.375000 0.250000
vt 0.625000 0.250000
vt 0.625000 0.500000
vt 0.375000 0.500000
vt 0.625000 0.750000
vt 0.375000 0.750000
vt 0.625000 0.750000
vt 0.625000 1.000000
vt 0.375000 1.000000
vt 0.125000 0.500000
vt 0.375000 0.500000
vt 0.375000 0.750000
vt 0.125000 0.750000
vt 0.625000 0.500000
vt 0.875000 0.500000
vt 0.875000 0.750000
vt 0.375000 0.000000
vt 0.625000 0.000000
vt 0.625000 0.250000
vt 0.375000 0.250000
vt 0.375000 0.250000
vt 0.625000 0.250000
vt 0.625000 0.500000
vt 0.375000 0.500000
vt 0.625000 0.750000
vt 0.375000 0.750000
vt 0.625000 0.750000
vt 0.625000 1.000000
vt 0.375000 1.000000
vt 0.125000 0.500000
vt 0.375000 0.500000
vt 0.375000 0.750000
vt 0.125000 0.750000
vt 0.625000 0.500000
vt 0.875000 0.500000
vt 0.875000 0.750000
vt 0.375000 0.000000
vt 0.625000 0.000000
vt 0.625000 0.250000
vt 0.375000 0.250000
vt 0.375000 0.250000
vt 0.625000 0.250000
vt 0.625000 0.500000
vt 0.375000 0.500000
vt 0.625000 0.750000
vt 0.375000 0.750000
vt 0.625000 0.750000
vt 0.625000 1.000000
vt 0.375000 1.000000
vt 0.125000 0.500000
vt 0.375000 0.500000
vt 0.375000 0.750000
vt 0.125000 0.750000
vt 0.625000 0.500000
vt 0.875000 0.500000
vt 0.875000 0.750000
vt 0.375000 0.000000
vt 0.625000 0.000000
vt 0.625000 0.250000
vt 0.375000 0.250000
vt 0.375000 0.250000
vt 0.625000 0.250000
vt 0.625000 0.500000
vt 0.375000 0.500000
vt 0.625000 0.750000
vt 0.375000 0.750000
vt 0.625000 0.750000
vt 0.625000 1.000000
vt 0.375000 1.000000
vt 0.125000 0.500000
vt 0.375000 0.500000
vt 0.375000 0.750000
vt 0.125000 0.750000
vt 0.625000 0.500000
vt 0.875000 0.500000
vt 0.875000 0.750000
vn 0.0000 1.0000 0.0000
vn -1.0000 0.0000 -0.0000
vn -0.0005 0.0063 -1.0000
vn -0.0000 -1.0000 -0.0000
vn 0.0005 -0.0063 1.0000
vn 1.0000 -0.0000 0.0000
usemtl Default_OBJ.013
s 1
f 1/1/1 2/2/1 3/3/1 4/4/1
f 5/5/2 4/6/2 3/7/2 6/8/2
f 6/8/3 3/7/3 2/9/3 7/10/3
f 7/10/4 8/11/4 5/12/4 6/13/4
f 8/14/5 1/15/5 4/16/5 5/17/5
f 7/18/6 2/19/6 1/20/6 8/11/6
f 9/21/1 10/22/1 11/23/1 12/24/1
f 13/25/3 12/26/3 11/27/3 14/28/3
f 14/28/6 11/27/6 10/29/6 15/30/6
f 15/30/4 16/31/4 13/32/4 14/33/4
f 16/34/2 9/35/2 12/36/2 13/37/2
f 15/38/5 10/39/5 9/40/5 16/31/5
f 17/41/1 18/42/1 19/43/1 20/44/1
f 21/45/3 20/46/3 19/47/3 22/48/3
f 22/48/6 19/47/6 18/49/6 23/50/6
f 23/50/4 24/51/4 21/52/4 22/53/4
f 24/54/2 17/55/2 20/56/2 21/57/2
f 23/58/5 18/59/5 17/60/5 24/51/5
f 25/61/1 26/62/1 27/63/1 28/64/1
f 29/65/2 28/66/2 27/67/2 30/68/2
f 30/68/3 27/67/3 26/69/3 31/70/3
f 31/70/4 32/71/4 29/72/4 30/73/4
f 32/74/5 25/75/5 28/76/5 29/77/5
f 31/78/6 26/79/6 25/80/6 32/71/6
f 33/81/1 34/82/1 35/83/1 36/84/1
f 37/85/3 36/86/3 35/87/3 38/88/3
f 38/88/6 35/87/6 34/89/6 39/90/6
f 39/90/4 40/91/4 37/92/4 38/93/4
f 40/94/2 33/95/2 36/96/2 37/97/2
f 39/98/5 34/99/5 33/100/5 40/91/5
f 41/101/1 42/102/1 43/103/1 44/104/1
f 45/105/3 44/106/3 43/107/3 46/108/3
f 46/108/6 43/107/6 42/109/6 47/110/6
f 47/110/4 48/111/4 45/112/4 46/113/4
f 48/114/2 41/115/2 44/116/2 45/117/2
f 47/118/5 42/119/5 41/120/5 48/111/5
f 49/121/1 50/122/1 51/123/1 52/124/1
f 53/125/2 52/126/2 51/127/2 54/128/2
f 54/128/3 51/127/3 50/129/3 55/130/3
f 55/130/4 56/131/4 53/132/4 54/133/4
f 56/134/5 49/135/5 52/136/5 53/137/5
f 55/138/6 50/139/6 49/140/6 56/131/6
f 57/141/1 58/142/1 59/143/1 60/144/1
f 61/145/2 60/146/2 59/147/2 62/148/2
f 62/148/3 59/147/3 58/149/3 63/150/3
f 63/150/4 64/151/4 61/152/4 62/153/4
f 64/154/5 57/155/5 60/156/5 61/157/5
f 63/158/6 58/159/6 57/160/6 64/151/6
f 65/161/1 66/162/1 67/163/1 68/164/1
f 69/165/2 68/166/2 67/167/2 70/168/2
f 70/168/3 67/167/3 66/169/3 71/170/3
f 71/170/4 72/171/4 69/172/4 70/173/4
f 72/174/5 65/175/5 68/176/5 69/177/5
f 71/178/6 66/179/6 65/180/6 72/171/6
f 73/181/1 74/182/1 75/183/1 76/184/1
f 77/185/2 76/186/2 75/187/2 78/188/2
f 78/188/3 75/187/3 74/189/3 79/190/3
f 79/190/4 80/191/4 77/192/4 78/193/4
f 80/194/5 73/195/5 76/196/5 77/197/5
f 79/198/6 74/199/6 73/200/6 80/191/6
f 81/201/1 82/202/1 83/203/1 84/204/1
f 85/205/2 84/206/2 83/207/2 86/208/2
f 86/208/3 83/207/3 82/209/3 87/210/3
f 87/210/4 88/211/4 85/212/4 86/213/4
f 88/214/5 81/215/5 84/216/5 85/217/5
f 87/218/6 82/219/6 81/220/6 88/211/6
f 89/221/1 90/222/1 91/223/1 92/224/1
f 93/225/2 92/226/2 91/227/2 94/228/2
f 94/228/3 91/227/3 90/229/3 95/230/3
f 95/230/4 96/231/4 93/232/4 94/233/4
f 96/234/5 89/235/5 92/236/5 93/237/5
f 95/238/6 90/239/6 89/240/6 96/231/6
f 97/241/1 98/242/1 99/243/1 100/244/1
f 101/245/2 100/246/2 99/247/2 102/248/2
f 102/248/3 99/247/3 98/249/3 103/250/3
f 103/250/4 104/251/4 101/252/4 102/253/4
f 104/254/5 97/255/5 100/256/5 101/257/5
f 103/258/6 98/259/6 97/260/6 104/251/6
f 105/261/1 106/262/1 107/263/1 108/264/1
f 109/265/2 108/266/2 107/267/2 110/268/2
f 110/268/3 107/267/3 106/269/3 111/270/3
f 111/270/4 112/271/4 109/272/4 110/273/4
f 112/274/5 105/275/5 108/276/5 109/277/5
f 111/278/6 106/279/6 105/280/6 112/271/6
f 113/281/1 114/282/1 115/283/1 116/284/1
f 117/285/2 116/286/2 115/287/2 118/288/2
f 118/288/3 115/287/3 114/289/3 119/290/3
f 119/290/4 120/291/4 117/292/4 118/293/4
f 120/294/5 113/295/5 116/296/5 117/297/5
f 119/298/6 114/299/6 113/300/6 120/291/6
f 121/301/1 122/302/1 123/303/1 124/304/1
f 125/305/2 124/306/2 123/307/2 126/308/2
f 126/308/3 123/307/3 122/309/3 127/310/3
f 127/310/4 128/311/4 125/312/4 126/313/4
f 128/314/5 121/315/5 124/316/5 125/317/5
f 127/318/6 122/319/6 121/320/6 128/311/6
f 129/321/1 130/322/1 131/323/1 132/324/1
f 133/325/2 132/326/2 131/327/2 134/328/2
f 134/328/3 131/327/3 130/329/3 135/330/3
f 135/330/4 136/331/4 133/332/4 134/333/4
f 136/334/5 129/335/5 132/336/5 133/337/5
f 135/338/6 130/339/6 129/340/6 136/331/6
